<?xml version="1.0" standalone="no"?>
<!DOCTYPE svg PUBLIC "-//W3C//DTD SVG 20010904//EN"
 "http://www.w3.org/TR/2001/REC-SVG-20010904/DTD/svg10.dtd">
<svg version="1.0" xmlns="http://www.w3.org/2000/svg"
 width="347.000000pt" height="92.000000pt" viewBox="0 0 347.000000 92.000000"
 preserveAspectRatio="xMidYMid meet">

<g transform="translate(0.000000,92.000000) scale(0.100000,-0.100000)"
fill="#000000" stroke="none">
<path d="M0 460 l0 -460 1735 0 1735 0 0 460 0 460 -1735 0 -1735 0 0 -460z
m2910 199 c0 -83 2 -90 18 -84 30 14 138 18 159 6 41 -21 53 -70 53 -210 0
-124 -1 -131 -20 -131 -19 0 -20 7 -20 123 0 133 -8 162 -52 187 -24 13 -32
13 -70 0 -60 -21 -68 -42 -68 -187 0 -116 -1 -123 -20 -123 -19 0 -20 7 -20
255 0 248 1 255 20 255 19 0 20 -7 20 -91z m-2445 -199 l0 -255 -55 0 -55 0
-3 245 c-1 134 0 251 3 258 3 9 21 12 57 10 l53 -3 0 -255z m555 234 c6 -14
10 -119 10 -234 0 -115 -4 -220 -10 -234 -8 -23 -15 -26 -59 -26 -35 0 -51 4
-55 16 -12 31 -7 479 6 492 7 7 31 12 55 12 37 0 45 -4 53 -26z m618 -1 c-3
-15 -16 -19 -70 -21 l-68 -3 -2 -212 c-3 -211 -3 -212 -25 -215 l-23 -3 0 215
0 215 -67 3 c-55 2 -68 6 -71 21 -3 16 10 17 163 17 153 0 166 -1 163 -17z
m-1320 -75 c14 -14 17 -295 3 -316 -5 -8 -22 -12 -42 -10 l-34 3 -3 145 c-3
177 -1 190 36 190 15 0 33 -5 40 -12z m807 -10 c3 -13 4 -88 3 -168 l-3 -145
-34 -3 c-20 -2 -37 2 -42 10 -12 19 -11 286 1 309 16 28 68 26 75 -3z m799
-36 c57 -33 71 -65 71 -157 0 -69 -4 -88 -21 -111 -39 -53 -71 -69 -134 -69
-63 0 -95 16 -134 68 -24 33 -34 138 -17 190 30 90 147 130 235 79z m759 -1
c15 -15 38 -14 35 2 -2 6 6 12 17 12 19 0 20 -8 23 -143 3 -165 -7 -213 -52
-258 -37 -37 -102 -52 -169 -38 -34 7 -43 14 -45 33 -3 20 -1 23 15 16 34 -14
120 -18 142 -5 23 12 61 66 61 88 0 8 -11 6 -37 -8 -47 -25 -76 -25 -130 -1
-52 24 -83 79 -83 148 0 102 36 160 107 173 42 7 100 -3 116 -19z m-545 -121
c2 -121 5 -137 24 -157 32 -35 86 -31 124 8 28 30 29 33 34 157 5 119 6 127
25 127 19 0 20 -7 20 -170 0 -154 -2 -170 -17 -173 -13 -2 -18 3 -18 17 0 26
-8 26 -36 0 -31 -29 -101 -36 -143 -14 -49 25 -61 65 -61 208 0 68 3 127 7
131 4 4 14 5 23 4 12 -3 15 -26 18 -138z m-1908 4 c0 -66 -3 -84 -14 -84 -45
0 -64 122 -26 160 12 12 25 18 30 15 6 -4 10 -44 10 -91z m940 86 c51 -27 37
-170 -16 -170 -11 0 -14 20 -14 90 0 50 3 90 6 90 3 0 14 -5 24 -10z m-282
-72 l3 -68 -206 0 -205 0 0 63 c0 35 3 67 7 71 4 3 95 5 202 4 l196 -3 3 -67z"/>
<path d="M1793 545 c-80 -34 -93 -177 -23 -247 61 -60 156 -24 179 68 20 79
-8 156 -64 180 -42 17 -51 17 -92 -1z"/>
<path d="M2561 546 c-35 -20 -50 -54 -51 -118 0 -69 15 -105 51 -124 46 -23
78 -17 116 21 35 35 35 36 31 106 -3 65 -6 74 -36 100 -35 32 -72 37 -111 15z"/>
</g>
</svg>
